solid OpenSCAD_Model
  facet normal -1 -0 -0
    outer loop
      vertex 0 2.5 0
      vertex 0 2.5 71
      vertex 0 15 0
    endloop
  endfacet
  facet normal -1 0 0
    outer loop
      vertex 0 15 0
      vertex 0 2.5 71
      vertex 0 15 71
    endloop
  endfacet
  facet normal -0.0995037 -0.995037 0
    outer loop
      vertex 0 2.5 71
      vertex 0 2.5 0
      vertex 25 0 0
    endloop
  endfacet
  facet normal -0.0995037 -0.995037 0
    outer loop
      vertex 25 0 71
      vertex 0 2.5 71
      vertex 25 0 7
    endloop
  endfacet
  facet normal -0.0995037 -0.995037 0
    outer loop
      vertex 25 0 7
      vertex 0 2.5 71
      vertex 25 0 0
    endloop
  endfacet
  facet normal -0 -0 -1
    outer loop
      vertex 0 2.5 0
      vertex 0 15 0
      vertex 25 0 0
    endloop
  endfacet
  facet normal 0 0 -1
    outer loop
      vertex 25 0 0
      vertex 0 15 0
      vertex 5 35 0
    endloop
  endfacet
  facet normal 0 -0 -1
    outer loop
      vertex 25 0 0
      vertex 5 35 0
      vertex 70 22.5 0
    endloop
  endfacet
  facet normal 0 0 -1
    outer loop
      vertex 25 0 0
      vertex 70 22.5 0
      vertex 70 2.5 0
    endloop
  endfacet
  facet normal -0 0 -1
    outer loop
      vertex 25 0 0
      vertex 70 2.5 0
      vertex 45 0 0
    endloop
  endfacet
  facet normal -0.970143 0.242536 0
    outer loop
      vertex 0 15 0
      vertex 0 15 71
      vertex 5 35 0
    endloop
  endfacet
  facet normal -0.970143 0.242536 0
    outer loop
      vertex 5 35 0
      vertex 0 15 71
      vertex 5 35 71
    endloop
  endfacet
  facet normal 0 -0 1
    outer loop
      vertex 0.75 3.25 71
      vertex 0 2.5 71
      vertex 25 0 71
    endloop
  endfacet
  facet normal 0 0 1
    outer loop
      vertex 0.75 3.25 71
      vertex 0.75 15 71
      vertex 0 15 71
    endloop
  endfacet
  facet normal 0 -0 1
    outer loop
      vertex 0 15 71
      vertex 0 2.5 71
      vertex 0.75 3.25 71
    endloop
  endfacet
  facet normal 0 0 1
    outer loop
      vertex 5.75 34.25 71
      vertex 0 15 71
      vertex 0.75 15 71
    endloop
  endfacet
  facet normal 0 -0 1
    outer loop
      vertex 5 35 71
      vertex 0 15 71
      vertex 5.75 34.25 71
    endloop
  endfacet
  facet normal -0 0 1
    outer loop
      vertex 70 22.5 71
      vertex 5.75 34.25 71
      vertex 69.25 21.75 71
    endloop
  endfacet
  facet normal 0 0 1
    outer loop
      vertex 70 2.5 71
      vertex 69.25 21.75 71
      vertex 69.25 3.25 71
    endloop
  endfacet
  facet normal 0 0 1
    outer loop
      vertex 45 0 71
      vertex 69.25 3.25 71
      vertex 45 0.75 71
    endloop
  endfacet
  facet normal -0 0 1
    outer loop
      vertex 70 2.5 71
      vertex 69.25 3.25 71
      vertex 45 0 71
    endloop
  endfacet
  facet normal 0 0 1
    outer loop
      vertex 70 22.5 71
      vertex 69.25 21.75 71
      vertex 70 2.5 71
    endloop
  endfacet
  facet normal 0 0 1
    outer loop
      vertex 5 35 71
      vertex 5.75 34.25 71
      vertex 70 22.5 71
    endloop
  endfacet
  facet normal -0 0 1
    outer loop
      vertex 25 0.75 71
      vertex 0.75 3.25 71
      vertex 25 0 71
    endloop
  endfacet
  facet normal 1 0 -0
    outer loop
      vertex 25 0 71
      vertex 25 0 7
      vertex 25 1.5 7
    endloop
  endfacet
  facet normal 1 0 -0
    outer loop
      vertex 25 0.75 71
      vertex 25 0 71
      vertex 25 1.5 7
    endloop
  endfacet
  facet normal 1 0 0
    outer loop
      vertex 25 1.5 73
      vertex 25 0.75 71
      vertex 25 1.5 7
    endloop
  endfacet
  facet normal 1 0 -0
    outer loop
      vertex 25 0.75 73
      vertex 25 0.75 71
      vertex 25 1.5 73
    endloop
  endfacet
  facet normal 0 -0 1
    outer loop
      vertex 25 1.5 7
      vertex 25 0 7
      vertex 45 0 7
    endloop
  endfacet
  facet normal 0 0 1
    outer loop
      vertex 45 1.5 7
      vertex 25 1.5 7
      vertex 45 0 7
    endloop
  endfacet
  facet normal 0 -1 0
    outer loop
      vertex 25 0 7
      vertex 25 0 0
      vertex 45 0 0
    endloop
  endfacet
  facet normal 0 -1 0
    outer loop
      vertex 45 0 7
      vertex 25 0 7
      vertex 45 0 0
    endloop
  endfacet
  facet normal 0.0995037 -0.995037 0
    outer loop
      vertex 45 0 7
      vertex 45 0 0
      vertex 70 2.5 0
    endloop
  endfacet
  facet normal 0.0995037 -0.995037 0
    outer loop
      vertex 45 0 71
      vertex 45 0 7
      vertex 70 2.5 71
    endloop
  endfacet
  facet normal 0.0995037 -0.995037 0
    outer loop
      vertex 70 2.5 71
      vertex 45 0 7
      vertex 70 2.5 0
    endloop
  endfacet
  facet normal 1 0 -0
    outer loop
      vertex 70 2.5 71
      vertex 70 2.5 0
      vertex 70 22.5 0
    endloop
  endfacet
  facet normal 1 0 0
    outer loop
      vertex 70 22.5 71
      vertex 70 2.5 71
      vertex 70 22.5 0
    endloop
  endfacet
  facet normal 0.188847 0.982006 0
    outer loop
      vertex 5 35 0
      vertex 5 35 71
      vertex 70 22.5 0
    endloop
  endfacet
  facet normal 0.188847 0.982006 0
    outer loop
      vertex 70 22.5 0
      vertex 5 35 71
      vertex 70 22.5 71
    endloop
  endfacet
  facet normal -1 -0 -0
    outer loop
      vertex 45 0 7
      vertex 45 0 71
      vertex 45 1.5 7
    endloop
  endfacet
  facet normal -1 0 0
    outer loop
      vertex 45 1.5 7
      vertex 45 0 71
      vertex 45 0.75 71
    endloop
  endfacet
  facet normal -1 0 0
    outer loop
      vertex 45 1.5 7
      vertex 45 0.75 71
      vertex 45 0.75 73
    endloop
  endfacet
  facet normal -1 0 0
    outer loop
      vertex 45 1.5 7
      vertex 45 0.75 73
      vertex 45 1.5 73
    endloop
  endfacet
  facet normal 0.102549 -0.994728 0
    outer loop
      vertex 45 0.75 73
      vertex 45 0.75 71
      vertex 69.25 3.25 71
    endloop
  endfacet
  facet normal 0.102549 -0.994728 0
    outer loop
      vertex 69.25 3.25 73
      vertex 45 0.75 73
      vertex 69.25 3.25 71
    endloop
  endfacet
  facet normal 1 0 -0
    outer loop
      vertex 69.25 3.25 73
      vertex 69.25 3.25 71
      vertex 69.25 21.75 71
    endloop
  endfacet
  facet normal 1 0 0
    outer loop
      vertex 69.25 21.75 73
      vertex 69.25 3.25 73
      vertex 69.25 21.75 71
    endloop
  endfacet
  facet normal 0.193144 0.98117 0
    outer loop
      vertex 5.75 34.25 71
      vertex 5.75 34.25 73
      vertex 69.25 21.75 71
    endloop
  endfacet
  facet normal 0.193144 0.98117 0
    outer loop
      vertex 69.25 21.75 71
      vertex 5.75 34.25 73
      vertex 69.25 21.75 73
    endloop
  endfacet
  facet normal -0.967884 0.251398 0
    outer loop
      vertex 0.75 15 71
      vertex 0.75 15 73
      vertex 5.75 34.25 71
    endloop
  endfacet
  facet normal -0.967884 0.251398 0
    outer loop
      vertex 5.75 34.25 71
      vertex 0.75 15 73
      vertex 5.75 34.25 73
    endloop
  endfacet
  facet normal -1 -0 -0
    outer loop
      vertex 0.75 3.25 71
      vertex 0.75 3.25 73
      vertex 0.75 15 71
    endloop
  endfacet
  facet normal -1 0 0
    outer loop
      vertex 0.75 15 71
      vertex 0.75 3.25 73
      vertex 0.75 15 73
    endloop
  endfacet
  facet normal -0.102549 -0.994728 0
    outer loop
      vertex 0.75 3.25 73
      vertex 0.75 3.25 71
      vertex 25 0.75 71
    endloop
  endfacet
  facet normal -0.102549 -0.994728 0
    outer loop
      vertex 25 0.75 73
      vertex 0.75 3.25 73
      vertex 25 0.75 71
    endloop
  endfacet
  facet normal 0 -0 1
    outer loop
      vertex 1.5 4 73
      vertex 0.75 3.25 73
      vertex 25 0.75 73
    endloop
  endfacet
  facet normal 0 0 1
    outer loop
      vertex 1.5 4 73
      vertex 1.5 15 73
      vertex 0.75 15 73
    endloop
  endfacet
  facet normal 0 -0 1
    outer loop
      vertex 0.75 15 73
      vertex 0.75 3.25 73
      vertex 1.5 4 73
    endloop
  endfacet
  facet normal 0 0 1
    outer loop
      vertex 6.5 33.5 73
      vertex 0.75 15 73
      vertex 1.5 15 73
    endloop
  endfacet
  facet normal 0 -0 1
    outer loop
      vertex 5.75 34.25 73
      vertex 0.75 15 73
      vertex 6.5 33.5 73
    endloop
  endfacet
  facet normal -0 0 1
    outer loop
      vertex 69.25 21.75 73
      vertex 6.5 33.5 73
      vertex 68.5 21 73
    endloop
  endfacet
  facet normal 0 0 1
    outer loop
      vertex 69.25 3.25 73
      vertex 68.5 21 73
      vertex 68.5 4 73
    endloop
  endfacet
  facet normal 0 0 1
    outer loop
      vertex 45 0.75 73
      vertex 68.5 4 73
      vertex 45 1.5 73
    endloop
  endfacet
  facet normal -0 0 1
    outer loop
      vertex 69.25 3.25 73
      vertex 68.5 4 73
      vertex 45 0.75 73
    endloop
  endfacet
  facet normal 0 0 1
    outer loop
      vertex 69.25 21.75 73
      vertex 68.5 21 73
      vertex 69.25 3.25 73
    endloop
  endfacet
  facet normal 0 0 1
    outer loop
      vertex 5.75 34.25 73
      vertex 6.5 33.5 73
      vertex 69.25 21.75 73
    endloop
  endfacet
  facet normal -0 0 1
    outer loop
      vertex 25 1.5 73
      vertex 1.5 4 73
      vertex 25 0.75 73
    endloop
  endfacet
  facet normal 0.105786 0.994389 0
    outer loop
      vertex 1.5 4 1.5
      vertex 1.5 4 73
      vertex 25 1.5 1.5
    endloop
  endfacet
  facet normal 0.105786 0.994389 0
    outer loop
      vertex 25 1.5 7
      vertex 1.5 4 73
      vertex 25 1.5 73
    endloop
  endfacet
  facet normal 0.105786 0.994389 0
    outer loop
      vertex 25 1.5 1.5
      vertex 1.5 4 73
      vertex 25 1.5 7
    endloop
  endfacet
  facet normal 0 1 0
    outer loop
      vertex 25 1.5 1.5
      vertex 25 1.5 7
      vertex 45 1.5 1.5
    endloop
  endfacet
  facet normal 0 1 0
    outer loop
      vertex 45 1.5 1.5
      vertex 25 1.5 7
      vertex 45 1.5 7
    endloop
  endfacet
  facet normal -0.105786 0.994389 0
    outer loop
      vertex 45 1.5 1.5
      vertex 45 1.5 7
      vertex 68.5 4 1.5
    endloop
  endfacet
  facet normal -0.105786 0.994389 0
    outer loop
      vertex 68.5 4 1.5
      vertex 45 1.5 7
      vertex 45 1.5 73
    endloop
  endfacet
  facet normal -0.105786 0.994389 0
    outer loop
      vertex 68.5 4 1.5
      vertex 45 1.5 73
      vertex 68.5 4 73
    endloop
  endfacet
  facet normal -1 -0 -0
    outer loop
      vertex 68.5 4 1.5
      vertex 68.5 4 73
      vertex 68.5 21 1.5
    endloop
  endfacet
  facet normal -1 0 0
    outer loop
      vertex 68.5 21 1.5
      vertex 68.5 4 73
      vertex 68.5 21 73
    endloop
  endfacet
  facet normal -0.197636 -0.980275 0
    outer loop
      vertex 6.5 33.5 73
      vertex 6.5 33.5 1.5
      vertex 68.5 21 1.5
    endloop
  endfacet
  facet normal -0.197636 -0.980275 0
    outer loop
      vertex 68.5 21 73
      vertex 6.5 33.5 73
      vertex 68.5 21 1.5
    endloop
  endfacet
  facet normal 0.965363 -0.260909 0
    outer loop
      vertex 1.5 15 73
      vertex 1.5 15 1.5
      vertex 6.5 33.5 1.5
    endloop
  endfacet
  facet normal 0.965363 -0.260909 0
    outer loop
      vertex 6.5 33.5 73
      vertex 1.5 15 73
      vertex 6.5 33.5 1.5
    endloop
  endfacet
  facet normal 1 0 -0
    outer loop
      vertex 1.5 4 73
      vertex 1.5 4 1.5
      vertex 1.5 15 1.5
    endloop
  endfacet
  facet normal 1 0 0
    outer loop
      vertex 1.5 15 73
      vertex 1.5 4 73
      vertex 1.5 15 1.5
    endloop
  endfacet
  facet normal 0 -0 1
    outer loop
      vertex 1.5 15 1.5
      vertex 1.5 4 1.5
      vertex 25 1.5 1.5
    endloop
  endfacet
  facet normal -0 0 1
    outer loop
      vertex 68.5 4 1.5
      vertex 1.5 15 1.5
      vertex 45 1.5 1.5
    endloop
  endfacet
  facet normal -0 0 1
    outer loop
      vertex 45 1.5 1.5
      vertex 1.5 15 1.5
      vertex 25 1.5 1.5
    endloop
  endfacet
  facet normal 0 0 1
    outer loop
      vertex 68.5 21 1.5
      vertex 1.5 15 1.5
      vertex 68.5 4 1.5
    endloop
  endfacet
  facet normal 0 -0 1
    outer loop
      vertex 6.5 33.5 1.5
      vertex 1.5 15 1.5
      vertex 68.5 21 1.5
    endloop
  endfacet
endsolid OpenSCAD_Model
