solid OpenSCAD_Model
  facet normal -0.0995037 0.995037 -1.03973e-16
    outer loop
      vertex 0 -2.5 3.06162e-16
      vertex 25 0 0
      vertex 0 -2.5 -8.5
    endloop
  endfacet
  facet normal -0.0995037 0.995037 -8.12289e-17
    outer loop
      vertex 0 -2.5 -8.5
      vertex 25 0 0
      vertex 25 -1.04095e-15 -8.5
    endloop
  endfacet
  facet normal -4.89032e-32 1.22465e-16 1
    outer loop
      vertex 1 -3.5 4.28626e-16
      vertex 0 -2.5 3.06162e-16
      vertex 0 -15 1.83697e-15
    endloop
  endfacet
  facet normal -0 1.22465e-16 1
    outer loop
      vertex 1 -15 1.83697e-15
      vertex 1 -3.5 4.28626e-16
      vertex 0 -15 1.83697e-15
    endloop
  endfacet
  facet normal 0 1.22465e-16 1
    outer loop
      vertex 1 -3.5 4.28626e-16
      vertex 25 -1 1.22465e-16
      vertex 25 0 0
    endloop
  endfacet
  facet normal 0 1.22465e-16 1
    outer loop
      vertex 5 -35 4.28626e-15
      vertex 1 -15 1.83697e-15
      vertex 0 -15 1.83697e-15
    endloop
  endfacet
  facet normal 0 1.22465e-16 1
    outer loop
      vertex 25 0 0
      vertex 0 -2.5 3.06162e-16
      vertex 1 -3.5 4.28626e-16
    endloop
  endfacet
  facet normal 0 1.22465e-16 1
    outer loop
      vertex 45 0 0
      vertex 45 -1 1.22465e-16
      vertex 70 -2.5 3.06162e-16
    endloop
  endfacet
  facet normal -0 1.22465e-16 1
    outer loop
      vertex 45 0 0
      vertex 25 0 0
      vertex 45 -1 1.22465e-16
    endloop
  endfacet
  facet normal 4.62223e-32 1.22465e-16 1
    outer loop
      vertex 70 -2.5 3.06162e-16
      vertex 69 -3.5 4.28626e-16
      vertex 70 -22.5 2.75546e-15
    endloop
  endfacet
  facet normal 0 1.22465e-16 1
    outer loop
      vertex 69 -3.5 4.28626e-16
      vertex 69 -21.5 2.63299e-15
      vertex 70 -22.5 2.75546e-15
    endloop
  endfacet
  facet normal 2.53113e-32 1.22465e-16 1
    outer loop
      vertex 69 -21.5 2.63299e-15
      vertex 6 -34 4.1638e-15
      vertex 70 -22.5 2.75546e-15
    endloop
  endfacet
  facet normal 0 1.22465e-16 1
    outer loop
      vertex 70 -22.5 2.75546e-15
      vertex 6 -34 4.1638e-15
      vertex 5 -35 4.28626e-15
    endloop
  endfacet
  facet normal 0 1.22465e-16 1
    outer loop
      vertex 45 -1 1.22465e-16
      vertex 69 -3.5 4.28626e-16
      vertex 70 -2.5 3.06162e-16
    endloop
  endfacet
  facet normal -1.39052e-31 1.22465e-16 1
    outer loop
      vertex 6 -34 4.1638e-15
      vertex 1 -15 1.83697e-15
      vertex 5 -35 4.28626e-15
    endloop
  endfacet
  facet normal 0 1.22465e-16 1
    outer loop
      vertex 25 -1 1.22465e-16
      vertex 45 -1 1.22465e-16
      vertex 25 0 0
    endloop
  endfacet
  facet normal -1 0 0
    outer loop
      vertex 0 -2.5 3.06162e-16
      vertex 0 -2.5 -8.5
      vertex 0 -15 1.83697e-15
    endloop
  endfacet
  facet normal -1 0 0
    outer loop
      vertex 0 -15 1.83697e-15
      vertex 0 -2.5 -8.5
      vertex 0 -15 -8.5
    endloop
  endfacet
  facet normal -5.68434e-17 -1.42109e-16 -1
    outer loop
      vertex 0 -2.5 -8.5
      vertex 25 -1.04095e-15 -8.5
      vertex 0 -15 -8.5
    endloop
  endfacet
  facet normal 0 -1.77636e-16 -1
    outer loop
      vertex 10 -10 -8.5
      vertex 25 -1.04095e-15 -8.5
      vertex 45 -1.04095e-15 -8.5
    endloop
  endfacet
  facet normal 4.36809e-17 -2.73734e-16 -1
    outer loop
      vertex 23 -10 -8.5
      vertex 45 -1.04095e-15 -8.5
      vertex 70 -2.5 -8.5
    endloop
  endfacet
  facet normal -1.03936e-17 -8.88178e-17 -1
    outer loop
      vertex 23 -17 -8.5
      vertex 70 -2.5 -8.5
      vertex 70 -22.5 -8.5
    endloop
  endfacet
  facet normal -8.82164e-18 -9.6236e-17 -1
    outer loop
      vertex 10 -17 -8.5
      vertex 70 -22.5 -8.5
      vertex 5 -35 -8.5
    endloop
  endfacet
  facet normal -3.55271e-16 3.55271e-16 -1
    outer loop
      vertex 0 -15 -8.5
      vertex 25 -1.04095e-15 -8.5
      vertex 10 -10 -8.5
    endloop
  endfacet
  facet normal -5.07531e-17 -2.53765e-16 -1
    outer loop
      vertex 10 -17 -8.5
      vertex 0 -15 -8.5
      vertex 10 -10 -8.5
    endloop
  endfacet
  facet normal -1.86985e-17 -9.34925e-17 -1
    outer loop
      vertex 0 -15 -8.5
      vertex 10 -17 -8.5
      vertex 5 -35 -8.5
    endloop
  endfacet
  facet normal 4.04945e-17 -2.53765e-16 -1
    outer loop
      vertex 23 -10 -8.5
      vertex 70 -2.5 -8.5
      vertex 23 -17 -8.5
    endloop
  endfacet
  facet normal -0 -1.77636e-16 -1
    outer loop
      vertex 10 -10 -8.5
      vertex 45 -1.04095e-15 -8.5
      vertex 23 -10 -8.5
    endloop
  endfacet
  facet normal 0 0 -1
    outer loop
      vertex 23 -17 -8.5
      vertex 70 -22.5 -8.5
      vertex 10 -17 -8.5
    endloop
  endfacet
  facet normal 0 1 -1.22465e-16
    outer loop
      vertex 25 0 0
      vertex 45 0 0
      vertex 25 -1.04095e-15 -8.5
    endloop
  endfacet
  facet normal 0 1 -1.22465e-16
    outer loop
      vertex 25 -1.04095e-15 -8.5
      vertex 45 0 0
      vertex 45 -1.04095e-15 -8.5
    endloop
  endfacet
  facet normal 0.0995037 0.995037 -1.21857e-16
    outer loop
      vertex 45 0 0
      vertex 70 -2.5 3.06162e-16
      vertex 45 -1.04095e-15 -8.5
    endloop
  endfacet
  facet normal 0.0995037 0.995037 -1.21843e-16
    outer loop
      vertex 45 -1.04095e-15 -8.5
      vertex 70 -2.5 3.06162e-16
      vertex 70 -2.5 -8.5
    endloop
  endfacet
  facet normal 1 0 0
    outer loop
      vertex 70 -2.5 -8.5
      vertex 70 -2.5 3.06162e-16
      vertex 70 -22.5 2.75546e-15
    endloop
  endfacet
  facet normal 1 0 0
    outer loop
      vertex 70 -22.5 -8.5
      vertex 70 -2.5 -8.5
      vertex 70 -22.5 2.75546e-15
    endloop
  endfacet
  facet normal 0.188847 -0.982006 0
    outer loop
      vertex 70 -22.5 2.75546e-15
      vertex 5 -35 4.28626e-15
      vertex 5 -35 -8.5
    endloop
  endfacet
  facet normal 0.188847 -0.982006 0
    outer loop
      vertex 70 -22.5 -8.5
      vertex 70 -22.5 2.75546e-15
      vertex 5 -35 -8.5
    endloop
  endfacet
  facet normal -0.970143 -0.242536 0
    outer loop
      vertex 0 -15 1.83697e-15
      vertex 0 -15 -8.5
      vertex 5 -35 4.28626e-15
    endloop
  endfacet
  facet normal -0.970143 -0.242536 0
    outer loop
      vertex 5 -35 4.28626e-15
      vertex 0 -15 -8.5
      vertex 5 -35 -8.5
    endloop
  endfacet
  facet normal 1 0 -0
    outer loop
      vertex 1 -15 1.83697e-15
      vertex 1 -15 -2
      vertex 1 -3.5 -2
    endloop
  endfacet
  facet normal 1 -0 0
    outer loop
      vertex 1 -3.5 4.28626e-16
      vertex 1 -15 1.83697e-15
      vertex 1 -3.5 -2
    endloop
  endfacet
  facet normal 0.967075 0.254493 -0
    outer loop
      vertex 6 -34 4.1638e-15
      vertex 6 -34 -2
      vertex 1 -15 -2
    endloop
  endfacet
  facet normal 0.967075 0.254493 -0
    outer loop
      vertex 1 -15 1.83697e-15
      vertex 6 -34 4.1638e-15
      vertex 1 -15 -2
    endloop
  endfacet
  facet normal -0.194619 0.980879 0
    outer loop
      vertex 69 -21.5 -2
      vertex 6 -34 -2
      vertex 69 -21.5 2.63299e-15
    endloop
  endfacet
  facet normal -0.194619 0.980879 0
    outer loop
      vertex 69 -21.5 2.63299e-15
      vertex 6 -34 -2
      vertex 6 -34 4.1638e-15
    endloop
  endfacet
  facet normal -1 -0 -0
    outer loop
      vertex 69 -21.5 -2
      vertex 69 -21.5 2.63299e-15
      vertex 69 -3.5 -2
    endloop
  endfacet
  facet normal -1 0 0
    outer loop
      vertex 69 -3.5 -2
      vertex 69 -21.5 2.63299e-15
      vertex 69 -3.5 4.28626e-16
    endloop
  endfacet
  facet normal -0.103606 -0.994618 0
    outer loop
      vertex 45 -1 -2
      vertex 69 -3.5 -2
      vertex 69 -3.5 4.28626e-16
    endloop
  endfacet
  facet normal -0.103606 -0.994618 1.10425e-16
    outer loop
      vertex 45 -1 1.22465e-16
      vertex 45 -1 -2
      vertex 69 -3.5 4.28626e-16
    endloop
  endfacet
  facet normal 0 -1 1.11022e-16
    outer loop
      vertex 25 -1 -2
      vertex 45 -1 -2
      vertex 45 -1 1.22465e-16
    endloop
  endfacet
  facet normal 0 -1 1.11022e-16
    outer loop
      vertex 25 -1 1.22465e-16
      vertex 25 -1 -2
      vertex 45 -1 1.22465e-16
    endloop
  endfacet
  facet normal 0.103606 -0.994618 0
    outer loop
      vertex 1 -3.5 -2
      vertex 25 -1 -2
      vertex 25 -1 1.22465e-16
    endloop
  endfacet
  facet normal 0.103606 -0.994618 0
    outer loop
      vertex 1 -3.5 4.28626e-16
      vertex 1 -3.5 -2
      vertex 25 -1 1.22465e-16
    endloop
  endfacet
  facet normal 1 0 -0
    outer loop
      vertex 10 -17 -7
      vertex 10 -17 -8.5
      vertex 10 -10 -8.5
    endloop
  endfacet
  facet normal 1 -0 0
    outer loop
      vertex 10 -10 -7
      vertex 10 -17 -7
      vertex 10 -10 -8.5
    endloop
  endfacet
  facet normal -0 -1 0
    outer loop
      vertex 10 -10 -8.5
      vertex 23 -10 -8.5
      vertex 23 -10 -7
    endloop
  endfacet
  facet normal 0 -1 0
    outer loop
      vertex 10 -10 -7
      vertex 10 -10 -8.5
      vertex 23 -10 -7
    endloop
  endfacet
  facet normal -1 -0 -0
    outer loop
      vertex 23 -17 -8.5
      vertex 23 -17 -7
      vertex 23 -10 -8.5
    endloop
  endfacet
  facet normal -1 0 0
    outer loop
      vertex 23 -10 -8.5
      vertex 23 -17 -7
      vertex 23 -10 -7
    endloop
  endfacet
  facet normal -0 1 0
    outer loop
      vertex 23 -17 -8.5
      vertex 10 -17 -8.5
      vertex 23 -17 -7
    endloop
  endfacet
  facet normal 0 1 0
    outer loop
      vertex 23 -17 -7
      vertex 10 -17 -8.5
      vertex 10 -17 -7
    endloop
  endfacet
  facet normal 3.07785e-17 -3.07785e-17 1
    outer loop
      vertex 6.5 -33.5 -2
      vertex 6 -34 -2
      vertex 69 -21.5 -2
    endloop
  endfacet
  facet normal 0 1.20024e-16 1
    outer loop
      vertex 6.5 -33.5 -2
      vertex 1.5 -15 -2
      vertex 1 -15 -2
    endloop
  endfacet
  facet normal -3.35162e-17 4.10573e-16 1
    outer loop
      vertex 1 -3.5 -2
      vertex 1.5 -4 -2
      vertex 25 -1 -2
    endloop
  endfacet
  facet normal -3.08932e-16 1.35158e-16 1
    outer loop
      vertex 1 -3.5 -2
      vertex 1 -15 -2
      vertex 1.5 -4 -2
    endloop
  endfacet
  facet normal 0 -0 1
    outer loop
      vertex 25 -1 -2
      vertex 25 -1.5 -2
      vertex 45 -1 -2
    endloop
  endfacet
  facet normal 0 0 1
    outer loop
      vertex 25 -1.5 -2
      vertex 45 -1.5 -2
      vertex 45 -1 -2
    endloop
  endfacet
  facet normal -9.25186e-18 0 1
    outer loop
      vertex 45 -1 -2
      vertex 45 -1.5 -2
      vertex 69 -3.5 -2
    endloop
  endfacet
  facet normal 3.20731e-16 1.23358e-16 1
    outer loop
      vertex 69 -3.5 -2
      vertex 68.5 -4 -2
      vertex 69 -21.5 -2
    endloop
  endfacet
  facet normal 1.17553e-16 1.17553e-16 1
    outer loop
      vertex 68.5 -4 -2
      vertex 68.5 -21 -2
      vertex 69 -21.5 -2
    endloop
  endfacet
  facet normal -9.25186e-17 9.25186e-17 1
    outer loop
      vertex 1 -15 -2
      vertex 6 -34 -2
      vertex 6.5 -33.5 -2
    endloop
  endfacet
  facet normal 1.88974e-17 0 1
    outer loop
      vertex 1.5 -4 -2
      vertex 25 -1.5 -2
      vertex 25 -1 -2
    endloop
  endfacet
  facet normal 2.56205e-17 4.18469e-16 1
    outer loop
      vertex 45 -1.5 -2
      vertex 68.5 -4 -2
      vertex 69 -3.5 -2
    endloop
  endfacet
  facet normal 2.08633e-17 2.08633e-17 1
    outer loop
      vertex 68.5 -21 -2
      vertex 6.5 -33.5 -2
      vertex 69 -21.5 -2
    endloop
  endfacet
  facet normal -0 1.21115e-16 1
    outer loop
      vertex 1.5 -15 -2
      vertex 1.5 -4 -2
      vertex 1 -15 -2
    endloop
  endfacet
  facet normal 8.69964e-18 9.89584e-17 1
    outer loop
      vertex 23 -17 -7
      vertex 6.5 -33.5 -7
      vertex 68.5 -21 -7
    endloop
  endfacet
  facet normal 1.11545e-17 1.26883e-16 1
    outer loop
      vertex 23 -10 -7
      vertex 23 -17 -7
      vertex 68.5 -21 -7
    endloop
  endfacet
  facet normal -1.36853e-17 1.28642e-16 1
    outer loop
      vertex 1.5 -4 -7
      vertex 10 -10 -7
      vertex 25 -1.5 -7
    endloop
  endfacet
  facet normal 9.49923e-18 1.61487e-16 1
    outer loop
      vertex 1.5 -4 -7
      vertex 1.5 -15 -7
      vertex 10 -10 -7
    endloop
  endfacet
  facet normal 8.71618e-18 8.19321e-17 1
    outer loop
      vertex 45 -1.5 -7
      vertex 23 -10 -7
      vertex 68.5 -4 -7
    endloop
  endfacet
  facet normal 0 1.07658e-16 1
    outer loop
      vertex 10 -17 -7
      vertex 6.5 -33.5 -7
      vertex 23 -17 -7
    endloop
  endfacet
  facet normal 2.41271e-17 1.0254e-16 1
    outer loop
      vertex 1.5 -15 -7
      vertex 6.5 -33.5 -7
      vertex 10 -17 -7
    endloop
  endfacet
  facet normal 0 1.04492e-16 1
    outer loop
      vertex 10 -10 -7
      vertex 45 -1.5 -7
      vertex 25 -1.5 -7
    endloop
  endfacet
  facet normal 0 1.04492e-16 1
    outer loop
      vertex 10 -10 -7
      vertex 23 -10 -7
      vertex 45 -1.5 -7
    endloop
  endfacet
  facet normal 5.7413e-18 1.04492e-16 1
    outer loop
      vertex 23 -10 -7
      vertex 68.5 -21 -7
      vertex 68.5 -4 -7
    endloop
  endfacet
  facet normal 2.98547e-17 1.26883e-16 1
    outer loop
      vertex 10 -17 -7
      vertex 10 -10 -7
      vertex 1.5 -15 -7
    endloop
  endfacet
  facet normal 0.105786 -0.994389 0
    outer loop
      vertex 25 -1.5 -2
      vertex 1.5 -4 -2
      vertex 1.5 -4 -7
    endloop
  endfacet
  facet normal 0.105786 -0.994389 8.83195e-17
    outer loop
      vertex 25 -1.5 -7
      vertex 25 -1.5 -2
      vertex 1.5 -4 -7
    endloop
  endfacet
  facet normal 1 0 0
    outer loop
      vertex 1.5 -4 -7
      vertex 1.5 -4 -2
      vertex 1.5 -15 -2
    endloop
  endfacet
  facet normal 1 0 0
    outer loop
      vertex 1.5 -15 -7
      vertex 1.5 -4 -7
      vertex 1.5 -15 -2
    endloop
  endfacet
  facet normal 0.965363 0.260909 0
    outer loop
      vertex 1.5 -15 -7
      vertex 1.5 -15 -2
      vertex 6.5 -33.5 -2
    endloop
  endfacet
  facet normal 0.965363 0.260909 0
    outer loop
      vertex 6.5 -33.5 -7
      vertex 1.5 -15 -7
      vertex 6.5 -33.5 -2
    endloop
  endfacet
  facet normal -0.197636 0.980275 0
    outer loop
      vertex 6.5 -33.5 -2
      vertex 68.5 -21 -2
      vertex 6.5 -33.5 -7
    endloop
  endfacet
  facet normal -0.197636 0.980275 0
    outer loop
      vertex 6.5 -33.5 -7
      vertex 68.5 -21 -2
      vertex 68.5 -21 -7
    endloop
  endfacet
  facet normal -1 0 0
    outer loop
      vertex 68.5 -4 -2
      vertex 68.5 -4 -7
      vertex 68.5 -21 -2
    endloop
  endfacet
  facet normal -1 0 0
    outer loop
      vertex 68.5 -21 -2
      vertex 68.5 -4 -7
      vertex 68.5 -21 -7
    endloop
  endfacet
  facet normal -0.105786 -0.994389 1.94579e-16
    outer loop
      vertex 68.5 -4 -2
      vertex 45 -1.5 -2
      vertex 45 -1.5 -7
    endloop
  endfacet
  facet normal -0.105786 -0.994389 -0
    outer loop
      vertex 68.5 -4 -7
      vertex 68.5 -4 -2
      vertex 45 -1.5 -7
    endloop
  endfacet
  facet normal 0 -1 8.88178e-17
    outer loop
      vertex 45 -1.5 -2
      vertex 25 -1.5 -2
      vertex 25 -1.5 -7
    endloop
  endfacet
  facet normal 0 -1 8.88178e-17
    outer loop
      vertex 45 -1.5 -7
      vertex 45 -1.5 -2
      vertex 25 -1.5 -7
    endloop
  endfacet
endsolid OpenSCAD_Model
